<svg width="24" height="24" viewBox="0 0 24 24" fill="none" xmlns="http://www.w3.org/2000/svg">
<path fill-rule="evenodd" clip-rule="evenodd" d="M8.70552 6.29289C9.09604 6.68342 9.09604 7.31658 8.70552 7.70711L5.41367 11H21C21.5523 11 22 11.4477 22 12C22 12.5128 21.614 12.9355 21.1166 12.9933L21 13H5.41323L8.70631 16.292C9.09684 16.6826 9.09684 17.3157 8.70631 17.7063C8.31579 18.0968 7.68262 18.0968 7.2921 17.7063L2.29224 12.708C1.90164 12.3175 1.90151 11.6844 2.29196 11.2938L2.29868 11.2871L7.29131 6.29289C7.68183 5.90237 8.315 5.90237 8.70552 6.29289Z" fill="white"/>
</svg>
