<svg width="24" height="24" viewBox="0 0 24 24" fill="none" xmlns="http://www.w3.org/2000/svg">
<path fill-rule="evenodd" clip-rule="evenodd" d="M15.2945 6.29289C14.904 6.68342 14.904 7.31658 15.2945 7.70711L18.5863 11H3C2.44772 11 2 11.4477 2 12C2 12.5128 2.38604 12.9355 2.88338 12.9933L3 13H18.5868L15.2937 16.292C14.9032 16.6826 14.9032 17.3157 15.2937 17.7063C15.6842 18.0968 16.3174 18.0968 16.7079 17.7063L21.7078 12.708C22.0984 12.3175 22.0985 11.6844 21.708 11.2938L21.7013 11.2871L16.7087 6.29289C16.3182 5.90237 15.685 5.90237 15.2945 6.29289Z" fill="white"/>
</svg>
